<?xml version="1.0" encoding="utf-8"?>
<!-- Generator: Adobe Illustrator 23.0.6, SVG Export Plug-In . SVG Version: 6.00 Build 0)  -->
<svg version="1.1" id="Layer_1" xmlns="http://www.w3.org/2000/svg" xmlns:xlink="http://www.w3.org/1999/xlink" x="0px" y="0px"
	 viewBox="0 0 754.1 773.3" style="enable-background:new 0 0 754.1 773.3;" xml:space="preserve">
<style type="text/css">
	.st0{display:none;}
	.st1{fill:#FFFFFF;}
	.st2{fill:#828AE7;stroke:#828AE7;stroke-width:2;stroke-miterlimit:10;}
	.st3{fill:#A683AC;stroke:#A683AC;stroke-width:2;stroke-miterlimit:10;}
	.st4{fill:#FAC2B2;stroke:#FAC2B2;stroke-width:2;stroke-miterlimit:10;}
	.st5{fill:#402336;stroke:#402336;stroke-width:4;stroke-miterlimit:10;}
	.st6{fill:#969EF0;stroke:#969EF0;stroke-width:4;stroke-miterlimit:10;}
	.st7{fill:#7A517B;stroke:#7A517B;stroke-width:4;stroke-miterlimit:10;}
	.st8{fill:#7A517B;}
	.st9{fill:none;stroke:#6E80E2;stroke-width:2;stroke-miterlimit:10;}
	.st10{fill:none;stroke:#B4605B;stroke-miterlimit:10;}
</style>
<g id="BG" class="st0">
	
		<image style="display:inline;overflow:visible;enable-background:new    ;" width="1528" height="1564" xlink:href="229B67E8.jpeg"  transform="matrix(0.25 0 0 0.254 223.3189 201.0715)">
	</image>
</g>
<g>
	<rect x="-96.7" class="st1" width="947.5" height="773.3"/>
</g>
<g id="Layer_5">
	<path class="st2" d="M375.7,270.5c-0.1,1.2-0.2,2.3-0.3,3.5c1-1,2-1.9,3.1-2.8C377.7,270.9,376.7,270.7,375.7,270.5z M375.7,270.5
		c-0.1,1.2-0.2,2.3-0.3,3.5c1-1,2-1.9,3.1-2.8C377.7,270.9,376.7,270.7,375.7,270.5z"/>
	<path class="st2" d="M376.8,318.7c2.4,1.3,4.9,2.3,7.5,3.1c-3.1,8.3-7.7,18.5-14.5,29.3C373.3,340.4,375.8,329.2,376.8,318.7z"/>
	<path class="st3" d="M647.5,277c-1.7-21.3-8.8-97.6-67-162.7C503.8,28.5,396,26.6,374.9,26.7c-16.7,0.1-50.2,1.6-88.8,14.2
		l-12.3,17.4l-30.1,0.6c-18.6,9.9-37.4,22.7-55.3,39.5c-75.3,70.9-81.8,160.8-82.8,179.7c-1.2,45.5,6.5,78.6,17.6,80.3
		c10.8,1.6,26.8-26.5,38.5-66c14.1-15.8,34.1-39.2,56.1-69.3C269,153,294.2,97,308.5,101.7c3.3,1.1,6.9,5.7,7.8,21.9
		c24.8-23.4,82-37.3,124.9-37.7c10.9-0.1,113.6-1.2,137,59.3c8.7,22.3,6,51.5-9.5,71.3c-28.8,36.7-90.4,26-119.5,20.9
		c-53.3-9.3-121.1-39.6-140.1-72.1c-7.2,23.9-18.8,49.8-31,70.1c-3.4,5.7-25.4,42.4-53.8,66.7c-2.9,11.7-12.9,46.2-45.9,73.6
		c-14.4,11.9-29.3,19.3-42.8,24c4.3,7.9,8.9,15.6,14,23.1c8.9,13.1,19.5,25.5,31.4,37c-2.4-0.9-4.9-1.7-7.5-2.4
		c1.8,3.8,3.1,7.8,3.9,12c-0.1,0-34.8-43.9-40.5-43.9c-0.2,0-0.3,0-0.4,0.1c-3.9,2.6,32,42.6,22,82.4c-3.9,15.6-13.6,26.4-19.9,32.3
		c4.8,2.1,28.5,11.7,53.4,0.7c1.8-0.8,6.6-2.9,11.9-6.5c2.5,6.5,4.4,13.9,4,21.9c-0.9,17.4-11.9,30.8-20,38.7
		c8.8,1.4,44.5,6.3,71.7-16.7c6.5-5.5,21.6-18.3,20.9-35.2c-0.4-10.1-6.4-20-16.4-28c34.3,15.1,72.2,23.9,110.9,24.1
		c30.9,0.2,61-5.2,89.3-14.7c-7.1,9.7-10.3,20.1-8.8,29.5c3.5,21,29.6,32.3,35.2,34.7c28.9,12.5,56.3,1.9,62.5-0.8
		c-6.9-7-16.5-18.9-16.6-33.9c-0.1-8.6,2.9-16.3,6.8-23c2.6,1.4,4.7,2.3,5.7,2.8c24.9,11,48.6,1.4,53.4-0.7
		c-6.8-6-16.3-16.3-18.7-30.7c-5.6-34,33.1-64.7,28.6-69.3c-0.3-0.3-0.8-0.5-1.5-0.5c-3.9,0-13.2,5.5-22.5,11.7
		c29.5-31.7,49.8-68.3,56.9-104.6C650.4,313.5,648.4,288.5,647.5,277z M131.8,274c0-1.2,0.1-2.3,0.3-3.5c1,0.2,1.9,0.4,2.8,0.6
		C133.9,272.1,132.8,273.1,131.8,274z"/>
	<path class="st2" d="M377,552.9"/>
	<path class="st2" d="M377,566.1"/>
</g>
<g id="skin">
	<path class="st4" d="M676.4,386.3c0,31.6-25.7,57.3-57.3,57.3c-6.5,0-12.7-1.1-18.5-3.1c-31.8,71.9-101.7,125.2-186,137.5v74
		c74.1,9.7,129.4,47.8,129.4,93.2c0,52.8-74.7,95.6-166.9,95.6S210.2,798,210.2,745.2c0-45.3,54.9-83.2,128.6-93.1v-74.3
		c-83.9-12.6-153.4-65.7-185.1-137.4c-5.8,2-12.1,3.1-18.5,3.1c-31.6,0-57.3-25.6-57.3-57.3c0-31.6,25.7-57.3,57.3-57.3
		c0.4,0,0.9,0,1.3,0C149.1,214.5,252,125.2,377,125.2c125.1,0,228,89.3,240.7,203.8c0.4,0,0.9,0,1.3,0
		C650.7,329,676.4,354.7,676.4,386.3z"/>
</g>
<g id="Layer_8">
</g>
<g id="Layer_6">
	<path class="st5" d="M377,699.1"/>
	<path class="st5" d="M377,741.4"/>
	<g>
		<path class="st6" d="M377.4,703.3v143.5H232.2c-15.9,1.3-31.1,1.3-44.6,0c-4.1-0.4-6.4-0.7-9.4-1.1c-23.4-2.9-27.5,0.1-31-2.7
			c-10.3-8,5.7-49.6,25.3-81.3c21.9-35.4,46.4-55.6,53.9-61.6c24.4-19.3,48-30,64.1-35.8C307.6,687.5,340.1,703.2,377.4,703.3z"/>
		<path class="st6" d="M376.7,703.3v143.5h145.2c15.9,1.3,31.1,1.3,44.6,0c4.2-0.4,6.4-0.7,9.4-1.1c23.4-2.9,27.5,0.1,31-2.7
			c10.3-8-5.7-49.6-25.3-81.3c-21.8-35.4-46.4-55.6-53.9-61.6c-24.4-19.3-48-30-64.1-35.8C446.5,687.5,414,703.2,376.7,703.3z"/>
	</g>
</g>
<g id="face_detail">
	<g>
		<ellipse class="st7" cx="266.9" cy="341.9" rx="20.8" ry="38.9"/>
		<ellipse class="st7" cx="487.2" cy="341.9" rx="20.8" ry="38.9"/>
	</g>
	<path class="st7" d="M443.8,467.2c0,24.4-29.9,44.1-66.7,44.1s-66.7-19.8-66.7-44.1H443.8z"/>
	<g>
		<g>
			<path class="st8" d="M386,420.6c-6.7-2-12.8-7.2-11.9-14.8c0.8-6.7,6.1-11.9,12.3-14.2c6-2.2,3.4-11.9-2.7-9.6
				c-10.4,3.8-18.8,12.4-19.6,23.8c-0.9,12.1,8.3,21.2,19.2,24.4C389.5,432,392.1,422.4,386,420.6L386,420.6z"/>
		</g>
	</g>
</g>
<g id="hair">
	<path class="st9" d="M377,65.9"/>
	<path class="st3" d="M662.3,394.6c-11.6,0.9-30.3,0.7-50.6-7.9c-46.6-19.6-62.9-66.3-65.7-74.7c-0.3,0.4-0.6,0.7-0.9,1.1
		c-3.5-12.8-10.3-30-24.7-44.4c-25-24.8-57.8-25.8-79.1-29.2c-33.7-5.4-79.6-23.4-131.8-79.3c-14.5,12.3-34.7,32.5-49.5,62.5
		c-16.8,33.9-10.1,46.7-27.5,80.9c-6.8,13.4-25.2,48.5-64.8,71.9c-30.1,17.7-59.2,20.9-75.8,21.3c7.1-3.3,25.9-13.1,36.3-34.8
		c2-4.3,6.4-13.8,6.6-27c0.2-17.3-7.2-30.2-11-35.9c2.7-4.6,5.8-8.2,8.8-7.9c1.3,0.1,2.5,1,3.5,2.2c1.8,4.3,3.7,7.4,3.9,7.7
		c-0.1-0.4-1.5-4.9-3.9-7.7c-0.9-2.2-1.8-4.6-2.3-7.2c-1.1-4.8-1.5-9.8-1.3-14.9c1-1,2.1-1.9,3.1-2.9c-0.9-0.3-1.9-0.5-2.8-0.7
		c3.3-33.8,32.1-69.9,46.8-88.6c38.7-48.7,106.8-102.9,129.5-83.9c5.2,4.4,7.6,12.3,7.8,22.4c24.8-23.9,82-38.1,125-38.5
		c10.9-0.1,113.6-1.2,137,60.6c6,15.9,6.6,35.3,1,52.4l0,0c-0.1,0.1-0.2,0.2-0.3,0.3c0.1,0,0.1,0,0.2-0.1c9.6-4.8,14.7-3.9,17.5-2.2
		c6.3,3.7,3.7,12.3,10.7,21.9c6.2,8.6,12.4,7.4,18.1,13.5c5.3,5.6,9.8,16.9,3.7,42.3c-4.8,20.2-4.2,21.2-5.4,36.1
		c-1,12.8-2.4,30.1,3.8,48C635.7,373.4,651.2,387,662.3,394.6z"/>
</g>
<g id="Layer_7">
	<path class="st10" d="M377,408.1"/>
	<g>
		<g>
			<g>
				<g>
					<path class="st8" d="M225.3,280.7c0.5-0.4,2.6-2.2,1.8-1.5c-1.2,1,0.6-0.5,0.9-0.6c0.7-0.5,1.5-1,2.2-1.5
						c3.1-2.1,6.3-3.9,9.6-5.5c9.2-4.5,19.6-6.4,29.8-6c9.1,0.3,18.2,2.9,26.2,6.9c3.1,1.6,6.2,3.4,9,5.4c0.8,0.5,3.6,2.7,1.5,1
						c0.8,0.6,1.5,1.2,2.2,1.8c4.1,3.5,10.1,4,14.1,0c3.6-3.6,4.1-10.6,0-14.1c-14.8-12.7-33.5-20.3-53.1-21.1
						c-21.4-0.8-42.3,7.2-58.4,21.1c-4.1,3.5-3.6,10.5,0,14.1C215.2,284.8,221.2,284.3,225.3,280.7L225.3,280.7z"/>
				</g>
			</g>
			<g>
				<g>
					<path class="st8" d="M445.6,280.7c0.5-0.4,2.6-2.2,1.8-1.5c-1.2,1,0.6-0.5,0.9-0.6c0.7-0.5,1.5-1,2.2-1.5
						c3.1-2.1,6.3-3.9,9.6-5.5c9.2-4.5,19.6-6.4,29.8-6c9.1,0.3,18.2,2.9,26.2,6.9c3.1,1.6,6.2,3.4,9,5.4c0.8,0.5,3.6,2.7,1.5,1
						c0.8,0.6,1.5,1.2,2.2,1.8c4.1,3.5,10.1,4,14.1,0c3.6-3.6,4.1-10.6,0-14.1c-14.8-12.7-33.5-20.3-53-21.1
						c-21.4-0.8-42.3,7.2-58.4,21.1c-4.1,3.5-3.6,10.5,0,14.1C435.6,284.8,441.5,284.3,445.6,280.7L445.6,280.7z"/>
				</g>
			</g>
		</g>
	</g>
</g>
</svg>
